<?xml version="1.0" encoding="UTF-8"?>
<svg version="1.1" xmlns="http://www.w3.org/2000/svg" width="1024" height="1024">
<path d="M0 0 C1.05353658 -0.00145344 2.10707317 -0.00290688 3.1925351 -0.00440437 C6.71634532 -0.00804844 10.24011185 -0.00458531 13.76392174 -0.0011425 C16.31852566 -0.00229495 18.87312942 -0.00388331 21.42773283 -0.00586975 C26.97879934 -0.00947509 32.52985612 -0.00937576 38.08092308 -0.00682259 C46.33595687 -0.00303609 54.59098246 -0.00497598 62.84601619 -0.00803089 C77.59222733 -0.01329488 92.33843413 -0.01284084 107.08464568 -0.00995198 C119.99311267 -0.00743561 132.90157806 -0.00678009 145.81004524 -0.00797462 C146.66657085 -0.00805101 147.52309647 -0.00812739 148.4055774 -0.00820609 C151.88263175 -0.00851744 155.3596861 -0.00883584 158.83674044 -0.00916586 C191.4555252 -0.01222488 224.0743072 -0.00945166 256.69309152 -0.00406896 C285.65577982 0.00067409 314.61846371 0.00025416 343.58115196 -0.00452995 C376.13153538 -0.00988873 408.68191636 -0.01200538 441.23230016 -0.00891769 C444.70485012 -0.00859698 448.17740007 -0.00828414 451.64995003 -0.00797462 C452.50495955 -0.00789555 453.35996908 -0.00781647 454.24088799 -0.007735 C467.13524082 -0.00659898 480.02959189 -0.00792514 492.92394447 -0.01045418 C507.59457333 -0.01331729 522.26519718 -0.01259052 536.93582542 -0.00717343 C545.1397897 -0.00424381 553.34374312 -0.0040358 561.54770711 -0.00781961 C567.68277595 -0.01033631 573.81783209 -0.00759344 579.95289938 -0.00284503 C582.42796954 -0.00173148 584.90304115 -0.00228839 587.37811036 -0.00472082 C621.95446814 -0.03608454 621.95446814 -0.03608454 634.81894493 2.87584114 C635.61582726 3.05139534 636.41270958 3.22694954 637.23373985 3.40782356 C644.15383372 5.00229916 650.64904455 7.21203491 657.13144493 10.12584114 C658.23488243 10.60537239 659.33831993 11.08490364 660.47519493 11.57896614 C685.00614224 22.96044169 702.88874097 42.35836957 715.13144493 66.12584114 C715.48722618 66.74072395 715.84300743 67.35560677 716.20956993 67.98912239 C725.48546799 84.59003519 727.30893169 105.65451127 727.25004864 124.25685787 C727.25071249 125.32663446 727.25137635 126.39641104 727.25206032 127.4986051 C727.25303974 131.07170068 727.24684809 134.64474658 727.24065208 138.21783638 C727.23982144 140.81027488 727.23942309 143.40271354 727.23941916 145.99515218 C727.23857783 152.36544919 727.23230563 158.73573025 727.22433068 165.10602187 C727.21502064 172.74041449 727.211545 180.37480708 727.2081115 188.00920421 C727.19949677 206.45848206 727.18041782 224.90774465 727.15968632 243.3570122 C727.14991193 252.09099468 727.14119135 260.82497812 727.13251417 269.55896175 C727.10269378 299.47758616 727.07001238 329.39620617 727.02967358 359.31481838 C727.02715082 361.19176221 727.02462912 363.06870604 727.02210848 364.94564987 C727.02085826 365.87640781 727.01960804 366.80716575 727.01831994 367.76612847 C727.01198937 372.48149166 727.00567226 377.19685487 726.99936485 381.91221809 C726.99811016 382.84798054 726.99685547 383.78374299 726.99556275 384.74786188 C726.95500324 415.07671044 726.92991212 445.40554485 726.91388554 475.73441562 C726.89686463 507.82713791 726.86531561 539.91981454 726.8175022 572.01250619 C726.8123035 575.53907112 726.80716604 579.06563614 726.80207443 582.59220123 C726.80081447 583.46049123 726.79955451 584.32878122 726.79825638 585.22338303 C726.77837092 599.16500444 726.77166093 613.10660204 726.76977693 627.04823618 C726.76755516 641.07566977 726.75055441 655.1030262 726.71879385 669.13042448 C726.70037982 677.45093142 726.69282964 685.77127658 726.70133639 694.09180047 C726.70646764 700.32429051 726.69057981 706.55656806 726.66689559 712.7890115 C726.66055078 715.29577904 726.66079176 717.80257464 726.66861127 720.30933801 C726.77363409 757.49813102 717.83460535 789.04193443 691.44394493 816.18834114 C661.57230445 845.94043768 624.01237501 850.28263408 583.75966454 850.26628304 C581.19789533 850.26887062 578.63612653 850.27188486 576.07435828 850.27528644 C569.7994338 850.28281348 563.52451784 850.28505677 557.24958931 850.28561549 C549.72545031 850.28653437 542.20131906 850.29321712 534.67718342 850.29996232 C516.50252229 850.31596796 498.32786205 850.32191861 480.15319514 850.32671106 C471.54857922 850.32905166 462.94396397 850.33265472 454.33934858 850.33640644 C424.85847888 850.34923479 395.37760953 850.35995642 365.8967371 850.36340904 C364.04871187 850.36363067 362.20068665 850.36385245 360.35266142 850.36407439 C358.50031862 850.36429503 356.64797582 850.36451551 354.79563302 850.36473584 C351.07985222 850.36517838 347.36407143 850.3656255 343.64829063 850.36607552 C342.72700392 850.36618491 341.80571721 850.3662943 340.85651273 850.366407 C310.97661249 850.3700385 281.09673649 850.38596575 251.21684554 850.40926588 C219.59051774 850.43388262 187.96420379 850.44758265 156.33786613 850.44877696 C152.86395156 850.4489484 149.390037 850.44916383 145.91612244 850.44941139 C144.63315533 850.44949505 144.63315533 850.44949505 143.32426969 850.44958039 C129.58595661 850.45072894 115.84766852 850.46173377 102.10936386 850.47629845 C88.29434028 850.49069098 74.47934862 850.49388481 60.6643196 850.48585847 C52.46758549 850.48141591 44.27095468 850.4852077 36.07423423 850.50109698 C29.93946414 850.51205318 23.80479945 850.50716351 17.67003129 850.49632511 C15.19912318 850.49437279 12.72820459 850.49742486 10.25731119 850.50616947 C-6.87202897 850.56292247 -23.94416146 849.99750728 -40.36855507 844.56334114 C-41.13570839 844.31358528 -41.90286171 844.06382942 -42.6932621 843.8065052 C-73.44294246 833.24196773 -96.32034707 811.25923079 -110.79433632 782.51646614 C-122.49473227 758.33242903 -123.02212822 733.13324373 -122.99553871 706.76693916 C-122.99669181 704.27859365 -122.99828061 701.7902483 -123.00026596 699.30190331 C-123.00356465 693.90479308 -123.00377638 688.50769655 -123.0012188 683.11058617 C-122.99742572 675.08431883 -122.9993756 667.05805989 -123.0024271 659.0317926 C-123.00768609 644.69227552 -123.00723902 630.35276291 -123.00434819 616.01324541 C-123.00183 603.45992156 -123.00117715 590.90659935 -123.00237083 578.3532753 C-123.00244722 577.51971795 -123.0025236 576.68616061 -123.0026023 575.82734395 C-123.00291366 572.44335966 -123.00323206 569.05937537 -123.00356207 565.67539109 C-123.00661994 533.94031767 -123.00384975 502.2052471 -122.99846517 470.47017412 C-122.99372276 442.30583439 -122.99414176 414.14149919 -122.99892616 385.9771595 C-123.00428771 354.30970616 -123.0064 322.64225533 -123.0033139 290.9748016 C-123.0029932 287.59490685 -123.00268036 284.21501209 -123.00237083 280.83511734 C-123.00229176 280.00294741 -123.00221268 279.17077749 -123.00213121 278.31339029 C-123.00099628 265.77606993 -123.00231931 253.23875139 -123.00485039 240.70143127 C-123.00771668 226.43283333 -123.00698001 212.16424053 -123.00156964 197.89564323 C-122.99864524 189.92134841 -122.99842438 181.94706476 -123.00221582 173.97277025 C-123.00474031 168.001687 -123.00197885 162.03061802 -122.99724124 156.05953563 C-122.99613127 153.65648889 -122.99667641 151.25344065 -122.99911703 148.8503949 C-123.00935903 137.92097944 -122.96025863 127.00964835 -122.43874359 116.09082317 C-122.40209335 115.30635872 -122.36544312 114.52189426 -122.32768226 113.71365815 C-120.47169187 79.6684003 -106.03812572 51.24141494 -81.49355507 27.87584114 C-75.75469604 22.78188946 -69.55861715 18.85327645 -62.86855507 15.12584114 C-61.89015663 14.5805677 -60.91175819 14.03529427 -59.90371132 13.47349739 C-41.29778063 3.65855677 -20.88340852 -0.05072522 0 0 Z " fill="#FCFBF7" transform="translate(209.86855506896973,86.87415885925293)"/>
<path d="M0 0 C1.81105831 -0.00446207 3.62211467 -0.00977926 5.43316823 -0.01586872 C10.37001525 -0.02994131 15.306799 -0.03171408 20.24366319 -0.03127182 C25.58316031 -0.03292943 30.92263206 -0.04601283 36.26211548 -0.0574646 C47.91455357 -0.08023392 59.56697336 -0.08822538 71.21943069 -0.09329104 C78.49974763 -0.0965552 85.78005933 -0.10308169 93.06037331 -0.11029243 C113.2346832 -0.12984196 133.40898824 -0.14625776 153.58330822 -0.14916897 C154.87207639 -0.14935654 156.16084456 -0.14954411 157.48866631 -0.14973736 C160.1009959 -0.1501036 162.71332548 -0.1504673 165.32565507 -0.15082847 C166.6223254 -0.15101128 167.91899573 -0.1511941 169.25495911 -0.15138245 C170.55321813 -0.151563 171.85147715 -0.15174354 173.18907735 -0.15192956 C194.24800595 -0.15547492 215.30683253 -0.1825273 236.36572572 -0.21988034 C258.0082615 -0.25796059 279.65074663 -0.27732639 301.29331666 -0.27762848 C313.43648289 -0.27821284 325.57952716 -0.2866924 337.72266197 -0.31562614 C348.05575907 -0.34013528 358.38868962 -0.34742542 368.72180792 -0.33237862 C373.99123908 -0.32520991 379.26034129 -0.32606635 384.52973557 -0.34878922 C389.35771415 -0.36940921 394.18511148 -0.36675056 399.01308397 -0.34591437 C400.75510306 -0.34242547 402.49716437 -0.34730395 404.23912814 -0.36161881 C417.03994824 -0.45999417 428.26809748 1.05872682 437.90266418 10.33274841 C448.98395485 22.65355705 449.08697509 35.34548544 449.02297974 51.11213684 C449.025722 53.14574378 449.02977551 55.17934929 449.03502339 57.2129513 C449.04559478 62.78822219 449.03749112 68.36333239 449.02627289 73.93859625 C449.01742287 79.9564365 449.02587678 85.9742559 449.03213501 91.99209595 C449.04107266 103.09568488 449.03646127 114.19922781 449.02497119 125.30281062 C449.01442712 135.5623428 449.0098967 145.82185664 449.01126671 156.0813942 C449.01139275 157.1029543 449.01139275 157.1029543 449.01152135 158.14515198 C449.01187361 160.90986898 449.01225762 163.67458597 449.01268692 166.43930296 C449.01665062 192.36673951 449.00394099 218.29414365 448.98316036 244.22157093 C448.96479552 267.24301326 448.95897722 290.26442454 448.96443176 313.28587341 C448.9647782 314.76382972 448.96512429 316.24178603 448.96547005 317.71974234 C448.96572655 318.81576583 448.96572655 318.81576583 448.96598822 319.9339312 C448.9668418 323.61230267 448.96766558 327.29067415 448.96845722 330.96904564 C448.9686143 331.69477459 448.96877138 332.42050354 448.96893322 333.16822428 C448.97292608 352.41833417 448.96744381 371.66844109 448.95894593 390.91854918 C448.95803892 392.99072041 448.95713327 395.06289164 448.9562307 397.13506287 C448.95562959 398.5096204 448.95502097 399.88417792 448.95440479 401.25873544 C448.95018806 410.83046286 448.94960323 420.40218441 448.95151029 429.97391246 C448.95395638 442.31227843 448.94964261 454.65061849 448.93430028 466.98897718 C448.92706379 472.93672916 448.92297292 478.88443772 448.92754364 484.83219337 C448.93162834 490.28010172 448.92643092 495.72792052 448.91391756 501.1758153 C448.91099651 503.1434133 448.9114125 505.11101979 448.91556064 507.07861559 C448.96705195 533.94862189 448.96705195 533.94862189 443.77375793 541.71165466 C443.24137512 542.51731873 442.70899231 543.32298279 442.16047668 544.15306091 C437.48033688 550.7197687 437.48033688 550.7197687 434.02375793 553.02415466 C428.28828962 558.45775622 429.04805021 569.74693599 428.52375793 577.21165466 C428.43739075 578.32733826 428.35102356 579.44302185 428.26203918 580.59251404 C427.55764543 590.1353723 427.16583134 599.32329191 428.83625793 608.77415466 C428.98804504 609.79702576 428.98804504 609.79702576 429.14289856 610.84056091 C431.00048669 621.58444901 437.49547393 630.4547195 443.62727356 639.21751404 C447.19951819 644.60916277 448.73536212 648.78253907 447.64875793 655.27415466 C446.40433529 658.19854789 445.55813305 659.70399865 442.87273145 661.38767993 C440.20826355 662.4497355 438.18273475 662.5225666 435.31518173 662.52025032 C434.22736491 662.52423242 433.13954809 662.52821451 432.01876712 662.53231728 C430.82422451 662.5264916 429.62968191 662.52066592 428.39894104 662.5146637 C427.12962211 662.51637255 425.86030318 662.5180814 424.55252004 662.51984203 C421.02702401 662.52431958 417.50164921 662.51630631 413.97616863 662.50628591 C410.17524911 662.49765957 406.37433659 662.50057099 402.57341003 662.50209045 C395.98729072 662.50313982 389.40121098 662.4968578 382.81510162 662.48561478 C373.29266549 662.46936977 363.77024852 662.4641528 354.24780002 662.46163879 C338.79875951 662.45726012 323.34974011 662.44394634 307.90071106 662.42503357 C292.89224859 662.40667923 277.88379186 662.39252054 262.87532043 662.38401794 C261.48794383 662.38322977 261.48794383 662.38322977 260.07253942 662.38242568 C255.4325599 662.37981563 250.79258035 662.37728821 246.15260077 662.37480187 C207.65130504 662.35406401 169.15003288 662.31883378 130.64875793 662.27415466 C130.67232361 663.44603333 130.67232361 663.44603333 130.69636536 664.6415863 C130.75901033 668.20653446 130.79784282 671.77136644 130.83625793 675.33665466 C130.86139465 676.56577576 130.88653137 677.79489685 130.91242981 679.06126404 C131.00632357 690.67279214 131.00632357 690.67279214 127.64875793 696.27415466 C124.36798111 697.91454308 121.18208914 697.92057227 117.64875793 697.27415466 C114.68445102 695.63805044 112.22896471 693.45309962 109.64875793 691.27415466 C103.13101982 686.22922752 96.36154727 681.75947036 89.33625793 677.46165466 C88.57136047 676.99348328 87.80646301 676.52531189 87.01838684 676.04295349 C80.23476146 671.33419092 80.23476146 671.33419092 72.62141418 669.32102966 C59.13269278 674.28620319 45.76293506 683.4726255 35.39875793 693.33665466 C31.43924406 696.12631217 29.43443068 695.9578222 24.64875793 695.27415466 C21.83872333 693.48051555 20.13935326 692.25534531 18.64875793 689.27415466 C18.56348165 687.24182832 18.54159658 685.20668461 18.55110168 683.17259216 C18.55593567 681.35501404 18.55593567 681.35501404 18.56086731 679.50071716 C18.57343567 677.59419373 18.57343567 677.59419373 18.58625793 675.64915466 C18.59076965 674.37040466 18.59528137 673.09165466 18.59992981 671.77415466 C18.6117459 668.60744174 18.62821979 665.44082111 18.64875793 662.27415466 C17.92150009 662.27859589 17.19424225 662.28303711 16.44494629 662.28761292 C9.54652291 662.32790874 2.64811743 662.35824945 -4.25039387 662.37777901 C-7.7958617 662.38815731 -11.34123119 662.40220572 -14.88664246 662.42503357 C-18.97511162 662.45118927 -23.06347964 662.46067658 -27.15202332 662.46946716 C-29.03550224 662.48495102 -29.03550224 662.48495102 -30.95703125 662.50074768 C-46.82144552 662.50274408 -60.3355694 659.27212094 -72.22624207 648.33665466 C-90.18372793 629.0529143 -88.50529433 603.32339696 -88.48495483 578.69166565 C-88.48682598 576.5294398 -88.48912789 574.36721429 -88.49182016 572.20498931 C-88.49790674 566.29727145 -88.49780829 560.3895678 -88.49662578 554.48184752 C-88.49642098 548.09726607 -88.50194798 541.71268909 -88.50668335 535.32810974 C-88.51497264 522.83351514 -88.51775038 510.33892541 -88.51829573 497.8443283 C-88.5187562 487.68607797 -88.52081935 477.52782915 -88.52399635 467.36957932 C-88.52489396 464.44003769 -88.52578378 461.51049606 -88.52667123 458.58095443 C-88.52689228 457.85256396 -88.52711333 457.12417348 -88.52734107 456.37371057 C-88.53349008 435.90235466 -88.53744215 415.43099928 -88.5369978 394.95964241 C-88.53698222 394.18874259 -88.53696664 393.41784276 -88.53695059 392.62358234 C-88.53686749 388.71678828 -88.53676845 384.80999422 -88.53666588 380.90320016 C-88.53664593 380.12736523 -88.53662599 379.3515303 -88.53660544 378.55218522 C-88.536565 376.9832612 -88.5365232 375.41433718 -88.53648005 373.84541317 C-88.53586724 349.43347079 -88.54337695 325.02154229 -88.55705261 300.60960388 C-88.5724283 273.15202526 -88.58101799 245.69445575 -88.58008939 218.23687255 C-88.58001476 215.30670222 -88.57996606 212.37653188 -88.57993507 209.44636154 C-88.57992342 208.72493439 -88.57991177 208.00350723 -88.57989976 207.26021865 C-88.57986905 195.67588488 -88.58624104 184.09156323 -88.59486734 172.50723307 C-88.60336273 160.85748531 -88.60414806 149.20775912 -88.59775802 137.55800952 C-88.59449728 131.25315367 -88.59442014 124.94834151 -88.60311127 118.64348984 C-88.61099652 112.86368451 -88.60952417 107.08395737 -88.60082714 101.3041539 C-88.59929664 99.22154069 -88.60109118 97.13892158 -88.60668721 95.05631532 C-88.67305548 68.58842147 -86.29319247 43.62266957 -67.23014832 23.59861755 C-47.52534167 3.80641056 -26.93460911 -0.04231078 0 0 Z " fill="#F3802B" transform="translate(331.3512420654297,164.72584533691406)"/>
<path d="M0 0 C1.81105831 -0.00446207 3.62211467 -0.00977926 5.43316823 -0.01586872 C10.37001525 -0.02994131 15.306799 -0.03171408 20.24366319 -0.03127182 C25.58316031 -0.03292943 30.92263206 -0.04601283 36.26211548 -0.0574646 C47.91455357 -0.08023392 59.56697336 -0.08822538 71.21943069 -0.09329104 C78.49974763 -0.0965552 85.78005933 -0.10308169 93.06037331 -0.11029243 C113.2346832 -0.12984196 133.40898824 -0.14625776 153.58330822 -0.14916897 C154.87207639 -0.14935654 156.16084456 -0.14954411 157.48866631 -0.14973736 C160.1009959 -0.1501036 162.71332548 -0.1504673 165.32565507 -0.15082847 C166.6223254 -0.15101128 167.91899573 -0.1511941 169.25495911 -0.15138245 C170.55321813 -0.151563 171.85147715 -0.15174354 173.18907735 -0.15192956 C194.24800595 -0.15547492 215.30683253 -0.1825273 236.36572572 -0.21988034 C258.0082615 -0.25796059 279.65074663 -0.27732639 301.29331666 -0.27762848 C313.43648289 -0.27821284 325.57952716 -0.2866924 337.72266197 -0.31562614 C348.05575907 -0.34013528 358.38868962 -0.34742542 368.72180792 -0.33237862 C373.99123908 -0.32520991 379.26034129 -0.32606635 384.52973557 -0.34878922 C389.35771415 -0.36940921 394.18511148 -0.36675056 399.01308397 -0.34591437 C400.75510306 -0.34242547 402.49716437 -0.34730395 404.23912814 -0.36161881 C417.03994824 -0.45999417 428.26809748 1.05872682 437.90266418 10.33274841 C448.98395485 22.65355705 449.08697509 35.34548544 449.02297974 51.11213684 C449.025722 53.14574378 449.02977551 55.17934929 449.03502339 57.2129513 C449.04559478 62.78822219 449.03749112 68.36333239 449.02627289 73.93859625 C449.01742287 79.9564365 449.02587678 85.9742559 449.03213501 91.99209595 C449.04107266 103.09568488 449.03646127 114.19922781 449.02497119 125.30281062 C449.01442712 135.5623428 449.0098967 145.82185664 449.01126671 156.0813942 C449.01139275 157.1029543 449.01139275 157.1029543 449.01152135 158.14515198 C449.01187361 160.90986898 449.01225762 163.67458597 449.01268692 166.43930296 C449.01665062 192.36673951 449.00394099 218.29414365 448.98316036 244.22157093 C448.96479552 267.24301326 448.95897722 290.26442454 448.96443176 313.28587341 C448.9647782 314.76382972 448.96512429 316.24178603 448.96547005 317.71974234 C448.96572655 318.81576583 448.96572655 318.81576583 448.96598822 319.9339312 C448.9668418 323.61230267 448.96766558 327.29067415 448.96845722 330.96904564 C448.9686143 331.69477459 448.96877138 332.42050354 448.96893322 333.16822428 C448.97292608 352.41833417 448.96744381 371.66844109 448.95894593 390.91854918 C448.95803892 392.99072041 448.95713327 395.06289164 448.9562307 397.13506287 C448.95562959 398.5096204 448.95502097 399.88417792 448.95440479 401.25873544 C448.95018806 410.83046286 448.94960323 420.40218441 448.95151029 429.97391246 C448.95395638 442.31227843 448.94964261 454.65061849 448.93430028 466.98897718 C448.92706379 472.93672916 448.92297292 478.88443772 448.92754364 484.83219337 C448.93162834 490.28010172 448.92643092 495.72792052 448.91391756 501.1758153 C448.91099651 503.1434133 448.9114125 505.11101979 448.91556064 507.07861559 C448.96705195 533.94862189 448.96705195 533.94862189 443.77375793 541.71165466 C443.24137512 542.51731873 442.70899231 543.32298279 442.16047668 544.15306091 C437.48033688 550.7197687 437.48033688 550.7197687 434.02375793 553.02415466 C428.28828962 558.45775622 429.04805021 569.74693599 428.52375793 577.21165466 C428.43739075 578.32733826 428.35102356 579.44302185 428.26203918 580.59251404 C427.55764543 590.1353723 427.16583134 599.32329191 428.83625793 608.77415466 C428.98804504 609.79702576 428.98804504 609.79702576 429.14289856 610.84056091 C431.00048669 621.58444901 437.49547393 630.4547195 443.62727356 639.21751404 C447.19951819 644.60916277 448.73536212 648.78253907 447.64875793 655.27415466 C446.40433529 658.19854789 445.55813305 659.70399865 442.87273145 661.38767993 C440.20826355 662.4497355 438.18273475 662.5225666 435.31518173 662.52025032 C434.22736491 662.52423242 433.13954809 662.52821451 432.01876712 662.53231728 C430.82422451 662.5264916 429.62968191 662.52066592 428.39894104 662.5146637 C427.12962211 662.51637255 425.86030318 662.5180814 424.55252004 662.51984203 C421.02702401 662.52431958 417.50164921 662.51630631 413.97616863 662.50628591 C410.17524911 662.49765957 406.37433659 662.50057099 402.57341003 662.50209045 C395.98729072 662.50313982 389.40121098 662.4968578 382.81510162 662.48561478 C373.29266549 662.46936977 363.77024852 662.4641528 354.24780002 662.46163879 C338.79875951 662.45726012 323.34974011 662.44394634 307.90071106 662.42503357 C292.89224859 662.40667923 277.88379186 662.39252054 262.87532043 662.38401794 C261.48794383 662.38322977 261.48794383 662.38322977 260.07253942 662.38242568 C255.4325599 662.37981563 250.79258035 662.37728821 246.15260077 662.37480187 C207.65130504 662.35406401 169.15003288 662.31883378 130.64875793 662.27415466 C130.67232361 663.44603333 130.67232361 663.44603333 130.69636536 664.6415863 C130.75901033 668.20653446 130.79784282 671.77136644 130.83625793 675.33665466 C130.86139465 676.56577576 130.88653137 677.79489685 130.91242981 679.06126404 C131.00632357 690.67279214 131.00632357 690.67279214 127.64875793 696.27415466 C124.36798111 697.91454308 121.18208914 697.92057227 117.64875793 697.27415466 C114.68445102 695.63805044 112.22896471 693.45309962 109.64875793 691.27415466 C103.13101982 686.22922752 96.36154727 681.75947036 89.33625793 677.46165466 C88.57136047 676.99348328 87.80646301 676.52531189 87.01838684 676.04295349 C80.23476146 671.33419092 80.23476146 671.33419092 72.62141418 669.32102966 C59.13269278 674.28620319 45.76293506 683.4726255 35.39875793 693.33665466 C31.43924406 696.12631217 29.43443068 695.9578222 24.64875793 695.27415466 C21.83872333 693.48051555 20.13935326 692.25534531 18.64875793 689.27415466 C18.56348165 687.24182832 18.54159658 685.20668461 18.55110168 683.17259216 C18.55593567 681.35501404 18.55593567 681.35501404 18.56086731 679.50071716 C18.57343567 677.59419373 18.57343567 677.59419373 18.58625793 675.64915466 C18.59076965 674.37040466 18.59528137 673.09165466 18.59992981 671.77415466 C18.6117459 668.60744174 18.62821979 665.44082111 18.64875793 662.27415466 C17.92150009 662.27859589 17.19424225 662.28303711 16.44494629 662.28761292 C9.54652291 662.32790874 2.64811743 662.35824945 -4.25039387 662.37777901 C-7.7958617 662.38815731 -11.34123119 662.40220572 -14.88664246 662.42503357 C-18.97511162 662.45118927 -23.06347964 662.46067658 -27.15202332 662.46946716 C-29.03550224 662.48495102 -29.03550224 662.48495102 -30.95703125 662.50074768 C-46.82144552 662.50274408 -60.3355694 659.27212094 -72.22624207 648.33665466 C-90.18372793 629.0529143 -88.50529433 603.32339696 -88.48495483 578.69166565 C-88.48682598 576.5294398 -88.48912789 574.36721429 -88.49182016 572.20498931 C-88.49790674 566.29727145 -88.49780829 560.3895678 -88.49662578 554.48184752 C-88.49642098 548.09726607 -88.50194798 541.71268909 -88.50668335 535.32810974 C-88.51497264 522.83351514 -88.51775038 510.33892541 -88.51829573 497.8443283 C-88.5187562 487.68607797 -88.52081935 477.52782915 -88.52399635 467.36957932 C-88.52489396 464.44003769 -88.52578378 461.51049606 -88.52667123 458.58095443 C-88.52689228 457.85256396 -88.52711333 457.12417348 -88.52734107 456.37371057 C-88.53349008 435.90235466 -88.53744215 415.43099928 -88.5369978 394.95964241 C-88.53698222 394.18874259 -88.53696664 393.41784276 -88.53695059 392.62358234 C-88.53686749 388.71678828 -88.53676845 384.80999422 -88.53666588 380.90320016 C-88.53664593 380.12736523 -88.53662599 379.3515303 -88.53660544 378.55218522 C-88.536565 376.9832612 -88.5365232 375.41433718 -88.53648005 373.84541317 C-88.53586724 349.43347079 -88.54337695 325.02154229 -88.55705261 300.60960388 C-88.5724283 273.15202526 -88.58101799 245.69445575 -88.58008939 218.23687255 C-88.58001476 215.30670222 -88.57996606 212.37653188 -88.57993507 209.44636154 C-88.57992342 208.72493439 -88.57991177 208.00350723 -88.57989976 207.26021865 C-88.57986905 195.67588488 -88.58624104 184.09156323 -88.59486734 172.50723307 C-88.60336273 160.85748531 -88.60414806 149.20775912 -88.59775802 137.55800952 C-88.59449728 131.25315367 -88.59442014 124.94834151 -88.60311127 118.64348984 C-88.61099652 112.86368451 -88.60952417 107.08395737 -88.60082714 101.3041539 C-88.59929664 99.22154069 -88.60109118 97.13892158 -88.60668721 95.05631532 C-88.67305548 68.58842147 -86.29319247 43.62266957 -67.23014832 23.59861755 C-47.52534167 3.80641056 -26.93460911 -0.04231078 0 0 Z M2.64875793 17.27415466 C2.64875793 190.85415466 2.64875793 364.43415466 2.64875793 543.27415466 C69.61813293 543.31540466 136.58750793 543.35665466 205.58625793 543.39915466 C226.75258362 543.41736267 247.9189093 543.43557068 269.72663879 543.45433044 C288.65645567 543.46101822 288.65645567 543.46101822 307.58627319 543.46504211 C316.03505563 543.46690968 324.48381171 543.47425659 332.93258667 543.48530579 C342.67371685 543.49802631 352.41482169 543.50382891 362.15596024 543.50104456 C367.14015657 543.49983845 372.12429626 543.50176608 377.10848224 543.51258492 C381.61590467 543.52230952 386.12323034 543.52280653 390.6306572 543.51595688 C392.25966429 543.51510899 393.88867743 543.51764378 395.51767266 543.52391982 C411.0367441 543.87758508 411.0367441 543.87758508 424.64875793 537.27415466 C433.96285073 526.92516267 431.79356176 513.26963905 431.77574158 500.19215393 C431.77689481 498.34889504 431.7784837 496.50563638 431.78046882 494.66237819 C431.78463532 489.61235776 431.78258344 484.56235627 431.7794826 479.51233578 C431.7772174 474.05846467 431.78071399 468.60459678 431.78346252 463.15072632 C431.78790951 452.46519244 431.78694782 441.77966558 431.78404988 431.09413143 C431.78178859 422.39378168 431.78148649 413.69343391 431.7825737 404.99308395 C431.78272693 403.75314496 431.78288017 402.51320596 431.78303804 401.23569306 C431.78335779 398.71618772 431.78368201 396.19668239 431.78401063 393.67717706 C431.78678177 370.71451548 431.78390813 347.75185699 431.77866804 324.78919617 C431.77393775 303.90234434 431.77433418 283.01549862 431.77912903 262.12864685 C431.78450888 238.61526366 431.78657334 215.10188365 431.78351676 191.5884999 C431.78319825 189.07047836 431.78288388 186.55245682 431.7825737 184.03443527 C431.78241942 182.79583706 431.78226515 181.55723884 431.7821062 180.28110734 C431.78124864 171.62011915 431.78268769 162.95913315 431.78505325 154.29814529 C431.78788443 143.69959294 431.78704468 133.10104797 431.78177251 122.50249644 C431.77917742 117.11075352 431.77805729 111.71902282 431.78142166 106.32728004 C431.78756437 95.04383535 431.76488976 83.7613379 431.68239832 72.47817087 C431.65721825 68.98115901 431.6444628 65.48441298 431.64117956 61.98731375 C431.63556482 57.77563084 431.59981851 53.56521824 431.54137908 49.35394739 C431.52455273 47.81563164 431.51754764 46.27716944 431.5215223 44.7387668 C431.57895878 33.72089629 431.57895878 33.72089629 426.68500376 24.12066478 C417.51205657 15.80244526 407.42627994 15.4153468 395.72990417 15.54589844 C394.03804738 15.54256056 392.34619411 15.53658684 390.65435469 15.52822536 C386.03318076 15.51294903 381.41283362 15.53484254 376.79174876 15.56310189 C371.79800249 15.58704323 366.80431411 15.57614858 361.81053162 15.5696106 C352.04160623 15.56221382 342.27300512 15.58649167 332.50414877 15.62121154 C321.13129051 15.66025003 309.75848761 15.66610968 298.38557191 15.67019164 C278.10262373 15.67843788 257.81981991 15.71418406 237.53694153 15.7665863 C217.84358127 15.81741984 198.15028343 15.85279326 178.4568634 15.86912537 C177.2424527 15.8701363 176.02804199 15.87114724 174.77683096 15.87218881 C169.89581238 15.8762085 165.01479377 15.88017097 160.13377508 15.88404528 C139.11142472 15.90105472 118.08908716 15.92949491 97.06675345 15.96058449 C93.65898138 15.96558028 90.25120908 15.9703839 86.84343672 15.97517133 C73.91801785 15.99371752 60.99263177 16.01824544 48.06724167 16.0512867 C44.14310783 16.06114721 40.21898029 16.0687062 36.29483795 16.07419968 C31.78879653 16.08060387 27.28279194 16.09164153 22.77677079 16.10653209 C21.14050032 16.11114804 19.50422409 16.1140719 17.8679475 16.1151988 C15.65632973 16.1169977 13.44481715 16.12485358 11.23322105 16.13434696 C10.00107821 16.13721968 8.76893536 16.14009239 7.49945486 16.14305216 C4.7018794 16.07857291 4.7018794 16.07857291 2.64875793 17.27415466 Z " fill="#29465A" transform="translate(331.3512420654297,164.72584533691406)"/>
<path d="M0 0 C1.05353658 -0.00145344 2.10707317 -0.00290688 3.1925351 -0.00440437 C6.71634532 -0.00804844 10.24011185 -0.00458531 13.76392174 -0.0011425 C16.31852566 -0.00229495 18.87312942 -0.00388331 21.42773283 -0.00586975 C26.97879934 -0.00947509 32.52985612 -0.00937576 38.08092308 -0.00682259 C46.33595687 -0.00303609 54.59098246 -0.00497598 62.84601619 -0.00803089 C77.59222733 -0.01329488 92.33843413 -0.01284084 107.08464568 -0.00995198 C119.99311267 -0.00743561 132.90157806 -0.00678009 145.81004524 -0.00797462 C146.66657085 -0.00805101 147.52309647 -0.00812739 148.4055774 -0.00820609 C151.88263175 -0.00851744 155.3596861 -0.00883584 158.83674044 -0.00916586 C191.4555252 -0.01222488 224.0743072 -0.00945166 256.69309152 -0.00406896 C285.65577982 0.00067409 314.61846371 0.00025416 343.58115196 -0.00452995 C376.13153538 -0.00988873 408.68191636 -0.01200538 441.23230016 -0.00891769 C444.70485012 -0.00859698 448.17740007 -0.00828414 451.64995003 -0.00797462 C452.50495955 -0.00789555 453.35996908 -0.00781647 454.24088799 -0.007735 C467.13524082 -0.00659898 480.02959189 -0.00792514 492.92394447 -0.01045418 C507.59457333 -0.01331729 522.26519718 -0.01259052 536.93582542 -0.00717343 C545.1397897 -0.00424381 553.34374312 -0.0040358 561.54770711 -0.00781961 C567.68277595 -0.01033631 573.81783209 -0.00759344 579.95289938 -0.00284503 C582.42796954 -0.00173148 584.90304115 -0.00228839 587.37811036 -0.00472082 C621.95446814 -0.03608454 621.95446814 -0.03608454 634.81894493 2.87584114 C635.61582726 3.05139534 636.41270958 3.22694954 637.23373985 3.40782356 C644.15383372 5.00229916 650.64904455 7.21203491 657.13144493 10.12584114 C658.23488243 10.60537239 659.33831993 11.08490364 660.47519493 11.57896614 C685.00614224 22.96044169 702.88874097 42.35836957 715.13144493 66.12584114 C715.48722618 66.74072395 715.84300743 67.35560677 716.20956993 67.98912239 C725.48546799 84.59003519 727.30893169 105.65451127 727.25004864 124.25685787 C727.25071249 125.32663446 727.25137635 126.39641104 727.25206032 127.4986051 C727.25303974 131.07170068 727.24684809 134.64474658 727.24065208 138.21783638 C727.23982144 140.81027488 727.23942309 143.40271354 727.23941916 145.99515218 C727.23857783 152.36544919 727.23230563 158.73573025 727.22433068 165.10602187 C727.21502064 172.74041449 727.211545 180.37480708 727.2081115 188.00920421 C727.19949677 206.45848206 727.18041782 224.90774465 727.15968632 243.3570122 C727.14991193 252.09099468 727.14119135 260.82497812 727.13251417 269.55896175 C727.10269378 299.47758616 727.07001238 329.39620617 727.02967358 359.31481838 C727.02715082 361.19176221 727.02462912 363.06870604 727.02210848 364.94564987 C727.02085826 365.87640781 727.01960804 366.80716575 727.01831994 367.76612847 C727.01198937 372.48149166 727.00567226 377.19685487 726.99936485 381.91221809 C726.99811016 382.84798054 726.99685547 383.78374299 726.99556275 384.74786188 C726.95500324 415.07671044 726.92991212 445.40554485 726.91388554 475.73441562 C726.89686463 507.82713791 726.86531561 539.91981454 726.8175022 572.01250619 C726.8123035 575.53907112 726.80716604 579.06563614 726.80207443 582.59220123 C726.80081447 583.46049123 726.79955451 584.32878122 726.79825638 585.22338303 C726.77837092 599.16500444 726.77166093 613.10660204 726.76977693 627.04823618 C726.76755516 641.07566977 726.75055441 655.1030262 726.71879385 669.13042448 C726.70037982 677.45093142 726.69282964 685.77127658 726.70133639 694.09180047 C726.70646764 700.32429051 726.69057981 706.55656806 726.66689559 712.7890115 C726.66055078 715.29577904 726.66079176 717.80257464 726.66861127 720.30933801 C726.77363409 757.49813102 717.83460535 789.04193443 691.44394493 816.18834114 C661.57230445 845.94043768 624.01237501 850.28263408 583.75966454 850.26628304 C581.19789533 850.26887062 578.63612653 850.27188486 576.07435828 850.27528644 C569.7994338 850.28281348 563.52451784 850.28505677 557.24958931 850.28561549 C549.72545031 850.28653437 542.20131906 850.29321712 534.67718342 850.29996232 C516.50252229 850.31596796 498.32786205 850.32191861 480.15319514 850.32671106 C471.54857922 850.32905166 462.94396397 850.33265472 454.33934858 850.33640644 C424.85847888 850.34923479 395.37760953 850.35995642 365.8967371 850.36340904 C364.04871187 850.36363067 362.20068665 850.36385245 360.35266142 850.36407439 C358.50031862 850.36429503 356.64797582 850.36451551 354.79563302 850.36473584 C351.07985222 850.36517838 347.36407143 850.3656255 343.64829063 850.36607552 C342.72700392 850.36618491 341.80571721 850.3662943 340.85651273 850.366407 C310.97661249 850.3700385 281.09673649 850.38596575 251.21684554 850.40926588 C219.59051774 850.43388262 187.96420379 850.44758265 156.33786613 850.44877696 C152.86395156 850.4489484 149.390037 850.44916383 145.91612244 850.44941139 C144.63315533 850.44949505 144.63315533 850.44949505 143.32426969 850.44958039 C129.58595661 850.45072894 115.84766852 850.46173377 102.10936386 850.47629845 C88.29434028 850.49069098 74.47934862 850.49388481 60.6643196 850.48585847 C52.46758549 850.48141591 44.27095468 850.4852077 36.07423423 850.50109698 C29.93946414 850.51205318 23.80479945 850.50716351 17.67003129 850.49632511 C15.19912318 850.49437279 12.72820459 850.49742486 10.25731119 850.50616947 C-6.87202897 850.56292247 -23.94416146 849.99750728 -40.36855507 844.56334114 C-41.13570839 844.31358528 -41.90286171 844.06382942 -42.6932621 843.8065052 C-73.44294246 833.24196773 -96.32034707 811.25923079 -110.79433632 782.51646614 C-122.49473227 758.33242903 -123.02212822 733.13324373 -122.99553871 706.76693916 C-122.99669181 704.27859365 -122.99828061 701.7902483 -123.00026596 699.30190331 C-123.00356465 693.90479308 -123.00377638 688.50769655 -123.0012188 683.11058617 C-122.99742572 675.08431883 -122.9993756 667.05805989 -123.0024271 659.0317926 C-123.00768609 644.69227552 -123.00723902 630.35276291 -123.00434819 616.01324541 C-123.00183 603.45992156 -123.00117715 590.90659935 -123.00237083 578.3532753 C-123.00244722 577.51971795 -123.0025236 576.68616061 -123.0026023 575.82734395 C-123.00291366 572.44335966 -123.00323206 569.05937537 -123.00356207 565.67539109 C-123.00661994 533.94031767 -123.00384975 502.2052471 -122.99846517 470.47017412 C-122.99372276 442.30583439 -122.99414176 414.14149919 -122.99892616 385.9771595 C-123.00428771 354.30970616 -123.0064 322.64225533 -123.0033139 290.9748016 C-123.0029932 287.59490685 -123.00268036 284.21501209 -123.00237083 280.83511734 C-123.00229176 280.00294741 -123.00221268 279.17077749 -123.00213121 278.31339029 C-123.00099628 265.77606993 -123.00231931 253.23875139 -123.00485039 240.70143127 C-123.00771668 226.43283333 -123.00698001 212.16424053 -123.00156964 197.89564323 C-122.99864524 189.92134841 -122.99842438 181.94706476 -123.00221582 173.97277025 C-123.00474031 168.001687 -123.00197885 162.03061802 -122.99724124 156.05953563 C-122.99613127 153.65648889 -122.99667641 151.25344065 -122.99911703 148.8503949 C-123.00935903 137.92097944 -122.96025863 127.00964835 -122.43874359 116.09082317 C-122.40209335 115.30635872 -122.36544312 114.52189426 -122.32768226 113.71365815 C-120.47169187 79.6684003 -106.03812572 51.24141494 -81.49355507 27.87584114 C-75.75469604 22.78188946 -69.55861715 18.85327645 -62.86855507 15.12584114 C-61.89015663 14.5805677 -60.91175819 14.03529427 -59.90371132 13.47349739 C-41.29778063 3.65855677 -20.88340852 -0.05072522 0 0 Z M-75.86855507 46.12584114 C-76.57753944 46.76521614 -77.28652382 47.40459114 -78.01699257 48.06334114 C-82.45374033 52.24822113 -85.65907742 56.96500108 -88.86855507 62.12584114 C-89.36226601 62.85158333 -89.85597694 63.57732552 -90.36464882 64.32505989 C-93.65836937 69.36402457 -95.99512123 74.55822114 -98.05605507 80.18834114 C-98.2938871 80.81740364 -98.53171913 81.44646614 -98.77675819 82.09459114 C-104.45625259 98.41717168 -104.30245681 115.16472275 -104.26296425 132.21183968 C-104.26785954 134.83905448 -104.27393276 137.46624306 -104.28142214 140.09344935 C-104.2952581 145.78160428 -104.29809037 151.46967969 -104.29346275 157.15784836 C-104.28659893 165.61688515 -104.29692844 174.07584212 -104.31042031 182.5348678 C-104.33527089 198.52528518 -104.33985222 214.51566905 -104.33795434 230.50610265 C-104.33657893 242.85773426 -104.34041031 255.20935431 -104.34787941 267.56098366 C-104.34892977 269.33829537 -104.34997738 271.11560709 -104.35102227 272.89291881 C-104.35154162 273.77522881 -104.35206096 274.65753881 -104.35259604 275.56658548 C-104.35311618 276.45054839 -104.35363633 277.33451129 -104.35417223 278.24526095 C-104.35469622 279.13075222 -104.35522021 280.01624349 -104.35576008 280.92856783 C-104.37033405 305.81820486 -104.37862998 330.70783766 -104.37401009 355.59747887 C-104.37383813 356.53490899 -104.37366618 357.47233912 -104.37348901 358.43817622 C-104.37260018 363.18896685 -104.37165537 367.93975747 -104.370691 372.69054809 C-104.37049997 373.63399574 -104.37030894 374.57744338 -104.37011211 375.54948035 C-104.36972502 377.45735841 -104.36933469 379.36523647 -104.36894114 381.27311453 C-104.36297201 410.95533781 -104.37840939 440.6374831 -104.41054726 470.3196888 C-104.44666137 503.70226409 -104.46595193 537.08478995 -104.46100855 570.46738601 C-104.4605386 574.03006919 -104.46012834 577.59275237 -104.45975685 581.15543556 C-104.45965447 582.03259603 -104.45955208 582.9097565 -104.45944659 583.81349758 C-104.45825414 597.02745992 -104.47018766 610.24136864 -104.48890114 623.45531654 C-104.51018574 638.49164457 -104.51393943 653.52786048 -104.49460155 668.56419358 C-104.48431254 676.96719893 -104.48764986 685.36993038 -104.5111324 693.77291069 C-104.52545715 699.40032431 -104.52128695 705.02753713 -104.50268664 710.6549375 C-104.49262225 713.85170962 -104.49279331 717.04785357 -104.51000732 720.2446101 C-104.64089717 746.34516482 -100.18459727 773.39536808 -82.86855507 794.12584114 C-82.20855507 794.12584114 -81.54855507 794.12584114 -80.86855507 794.12584114 C-79.86855507 796.12584114 -78.86855507 798.12584114 -77.86855507 800.12584114 C-77.20855507 800.12584114 -76.54855507 800.12584114 -75.86855507 800.12584114 C-75.62750038 800.69818489 -75.38644569 801.27052864 -75.13808632 801.86021614 C-68.16277105 814.30847108 -49.44036445 823.46901447 -36.24355507 827.75084114 C-34.45547982 828.22299131 -32.66308121 828.67883462 -30.86855507 829.12584114 C-29.32591898 829.51052274 -29.32591898 829.51052274 -27.75211853 829.90297568 C-14.88238168 832.70580505 -2.14937276 832.54474124 10.97224998 832.50679207 C13.58494371 832.5102527 16.19763597 832.51501998 18.81032521 832.5209738 C24.46977021 832.53175369 30.12912919 832.5315144 35.78857803 832.52383232 C44.20471139 832.51243965 52.62077277 832.51830948 61.0369057 832.52745724 C76.07227262 832.54322241 91.10760121 832.54189804 106.14297174 832.53322051 C119.30156401 832.52566375 132.46014227 832.52370843 145.61873627 832.52728844 C146.9297221 832.52763217 146.9297221 832.52763217 148.2671925 832.52798285 C151.81531803 832.52891692 155.36344356 832.52987212 158.91156907 832.53086214 C192.17383674 832.54003244 225.43608004 832.53172952 258.69834394 832.51557145 C288.22594339 832.50133663 317.75350402 832.50260824 347.28110313 832.51695442 C380.48234323 832.53303168 413.68356181 832.53938075 446.88480526 832.53011763 C450.42664945 832.52915553 453.96849364 832.52821701 457.51033783 832.52728844 C458.38238189 832.5270512 459.25442594 832.52681397 460.15289558 832.52656955 C473.29995597 832.52316253 486.44700076 832.52713792 499.59405899 832.5347271 C514.5492594 832.54331717 529.50441559 832.54113426 544.45961051 832.52488486 C552.82117106 832.51609847 561.18263578 832.51546836 569.54419377 832.52682339 C575.7981187 832.53437688 582.05193157 832.52614032 588.30584276 832.51189966 C590.82785604 832.50856062 593.34988222 832.51022607 595.87188714 832.51752703 C629.31508928 832.60688205 655.82798446 825.28952658 681.04941368 802.20396614 C701.73190858 781.56027517 708.49396073 756.70904096 708.53733724 728.41339123 C708.5315434 725.93815618 708.52546245 723.46292179 708.51912498 720.98768806 C708.52330172 718.33047536 708.52866003 715.67328853 708.5354448 713.0160836 C708.54776525 707.25629279 708.54904424 701.49658349 708.54289436 695.73678398 C708.53377352 687.17141474 708.54185913 678.6061204 708.5531856 670.04075688 C708.57282167 654.7391428 708.57520582 639.43756265 708.5699904 624.13593897 C708.56542822 610.74376303 708.56603866 597.35160049 708.57183075 583.95942497 C708.57258762 582.16104921 708.5733436 580.36267346 708.5740987 578.5642977 C708.57524392 575.85410816 708.5763938 573.14391862 708.57755794 570.43372909 C708.58825826 545.24687087 708.59299296 520.06001709 708.58508778 494.8731575 C708.5847906 493.92431445 708.58449343 492.97547139 708.58418725 491.99787552 C708.58173847 484.29324672 708.5791268 476.58861798 708.57650312 468.88398924 C708.56640109 438.83291214 708.57475716 408.78189092 708.59799767 378.73082161 C708.62408464 344.94471123 708.63691442 311.15863448 708.62980992 277.37251365 C708.62909389 273.76830539 708.62841949 270.16409712 708.62776947 266.55988884 C708.62751476 265.22878102 708.62751476 265.22878102 708.6272549 263.87078213 C708.6249545 250.49082448 708.63291646 237.11089813 708.64606094 223.73094749 C708.66098726 208.51038043 708.6617951 193.28988657 708.64399003 178.06932105 C708.63444359 169.55887804 708.63582795 161.0486059 708.65322472 152.53817438 C708.6637469 146.84417851 708.65956813 141.15031222 708.64374468 135.45632901 C708.6351484 132.21827855 708.63483702 128.98062542 708.648014 125.74258079 C708.77138472 93.09375644 700.34236185 68.62001541 677.13144493 45.12584114 C676.41472618 44.3846302 675.69800743 43.64341927 674.95956993 42.87974739 C654.42964705 23.10577128 626.42591504 17.94395613 598.97832203 17.99441338 C597.91831143 17.99236074 596.85830082 17.99030811 595.76616868 17.98819327 C592.23235215 17.98256184 588.69857507 17.98397572 585.16475487 17.98539925 C582.59818829 17.98281341 580.03162211 17.97979964 577.46505648 17.97639585 C571.16273948 17.96884902 564.86043095 17.96662448 558.5581099 17.96606679 C551.00440787 17.96514987 543.45071359 17.95847271 535.89701492 17.95171997 C517.64545883 17.93569235 499.3939036 17.92976064 481.14234173 17.92497122 C472.50279193 17.9226323 463.8632428 17.91902936 455.22369352 17.91527584 C425.63011639 17.90244401 396.03653963 17.89172388 366.44295979 17.88827324 C364.58677728 17.88805161 362.73059478 17.88782983 360.87441227 17.88760789 C359.01384493 17.88738725 357.15327759 17.88716677 355.29271024 17.88694644 C351.56032558 17.8865039 347.82794092 17.88605678 344.09555626 17.88560677 C343.17014832 17.88549737 342.24474038 17.88538798 341.29128977 17.88527528 C311.28765376 17.88164497 281.28404191 17.86572402 251.28041515 17.8424164 C219.53314656 17.8177995 187.78589179 17.80409957 156.03861338 17.80290532 C152.55115576 17.80273388 149.06369815 17.80251845 145.57624054 17.80227089 C144.71757683 17.80221512 143.85891312 17.80215935 142.9742293 17.80210189 C129.17990644 17.80095317 115.38560846 17.78994662 101.59129399 17.77538383 C87.71753148 17.7609908 73.84380074 17.7577977 59.9700328 17.76582381 C51.73777079 17.77026659 43.50561163 17.7664738 35.27336321 17.75058531 C29.11197852 17.73962958 22.95069878 17.74451844 16.78931601 17.75535718 C14.30752126 17.75730962 11.82571607 17.75425685 9.34393596 17.74551281 C-23.68185127 17.63657889 -51.06733634 23.21091228 -75.86855507 46.12584114 Z " fill="#2B4758" transform="translate(209.86855506896973,86.87415885925293)"/>
<path d="M0 0 C1.83265779 -0.00174627 3.6653146 -0.0052522 5.49796611 -0.01035666 C10.51273809 -0.01926955 15.52716613 -0.0033438 20.54189432 0.01675558 C25.95756573 0.03406945 31.37321859 0.02818109 36.78890991 0.02514648 C46.16491966 0.02305161 55.54081785 0.03557518 64.91679955 0.05809784 C78.47278762 0.09064032 92.02872189 0.10102717 105.58474479 0.10604981 C127.57978657 0.11479892 149.57476892 0.14140412 171.56977844 0.17926025 C192.93273232 0.21599025 214.2956669 0.24429719 235.65864563 0.2612915 C236.97600772 0.2623424 238.2933698 0.26339329 239.65065195 0.26447603 C246.25963437 0.26969628 252.8686169 0.27475108 259.4775995 0.27972364 C314.28416437 0.32117373 369.09066485 0.39161175 423.89717102 0.48101807 C423.75678875 2.85372408 423.61154673 5.22597038 423.46357727 7.59820557 C423.40538818 8.5943689 423.40538818 8.5943689 423.34602356 9.61065674 C423.08808624 13.67535019 422.60135434 17.60734964 421.83467102 21.60601807 C419.80612792 33.21981447 421.13895445 43.31631619 424.34590149 54.52301025 C424.86519606 56.36744891 425.33785382 58.22483583 425.80732727 60.08258057 C428.23682196 69.4009022 431.67216685 76.42743771 435.89717102 85.48101807 C339.20717102 85.48101807 242.51717102 85.48101807 142.89717102 85.48101807 C142.56717102 72.94101807 142.23717102 60.40101807 141.89717102 47.48101807 C142.12269773 32.27553932 142.12269773 32.27553932 138.89717102 26.48101807 C136.15665552 24.66829614 133.97970928 24.22888258 130.7293396 24.21359253 C129.90647964 24.20506256 129.08361969 24.19653259 128.23582458 24.18774414 C126.89462051 24.1891037 126.89462051 24.1891037 125.52632141 24.19049072 C124.57791885 24.1837735 123.6295163 24.17705627 122.65237427 24.1701355 C119.51647202 24.15113348 116.3807835 24.14723035 113.24482727 24.14508057 C111.06533723 24.13865479 108.88584807 24.13192659 106.70635986 24.12490845 C102.13753763 24.1129306 97.56879105 24.10922821 92.99995422 24.1104126 C87.14424279 24.11061595 81.28901578 24.08329861 75.43341923 24.04886818 C70.93213673 24.02663786 66.43097159 24.02257385 61.92963982 24.02363205 C59.7706631 24.02127084 57.61168341 24.01241822 55.4527607 23.99696732 C52.43396615 23.97738352 49.41622649 23.98311546 46.39741516 23.99517822 C45.05924744 23.9783197 45.05924744 23.9783197 43.69404602 23.96112061 C39.60430066 24.00267277 37.43070384 24.15665551 33.86590576 26.32388306 C30.83051446 29.64974951 30.76247873 32.45001695 30.69184875 36.77862549 C30.67190353 37.8595195 30.65195831 38.94041351 30.63140869 40.05406189 C30.6146962 41.21976212 30.5979837 42.38546234 30.58076477 43.58648682 C30.54959312 45.37799919 30.54959312 45.37799919 30.51779175 47.20570374 C30.45232826 51.02658249 30.39342592 54.84753082 30.33467102 58.66851807 C30.29148278 61.25641593 30.24786839 63.84430672 30.20381165 66.43218994 C30.0966501 72.78172546 29.99487762 79.1313304 29.89717102 85.48101807 C21.69083135 85.57398924 13.48471433 85.64491941 5.27797699 85.68826675 C1.46660667 85.70907886 -2.34440144 85.73727803 -6.15556335 85.78277588 C-9.83846562 85.82646386 -13.52102106 85.85020306 -17.2041626 85.86052704 C-18.6043137 85.86787756 -20.00444734 85.88223105 -21.40444946 85.90393829 C-31.57811006 86.0553073 -38.72846007 85.15190403 -46.59501648 78.14508057 C-54.35618731 69.57964333 -58.87882291 59.20036887 -58.51689148 47.60211182 C-57.12634648 37.12055095 -53.29891145 27.05411427 -47.10282898 18.48101807 C-46.5175946 17.66117432 -45.93236023 16.84133057 -45.32939148 15.99664307 C-42.7212885 13.04994426 -39.83801053 11.00183839 -36.54032898 8.91851807 C-35.98280945 8.54533447 -35.42528992 8.17215088 -34.85087585 7.78765869 C-23.68155822 0.6278397 -12.89375027 -0.09163761 0 0 Z " fill="#FCFBF7" transform="translate(320.1028289794922,724.5189819335938)"/>
<path d="M0 0 C15.88922215 10.76464478 21.77842798 28.3643952 26.15234375 46.26953125 C26.91281555 49.51460807 26.91281555 49.51460807 29.046875 52.38671875 C33.26302928 53.0231194 35.32487842 52.85758608 38.921875 50.51171875 C41.48508748 46.74228863 41.57071312 44.25808639 41.515625 39.7890625 C42.046875 37.38671875 42.046875 37.38671875 44.05859375 35.10546875 C47.86272176 32.91747355 51.091489 32.81867384 55.359375 32.94921875 C56.12266113 32.96533203 56.88594727 32.98144531 57.67236328 32.99804688 C68.98917595 33.39606473 77.27967935 38.37478971 85.1640625 46.59375 C93.95456942 57.36495054 96.26559111 68.7038606 95.046875 82.38671875 C93.87740445 86.39921254 92.17631757 89.80206344 90.046875 93.38671875 C89.58925781 94.18851562 89.13164063 94.9903125 88.66015625 95.81640625 C83.8726203 103.60762913 76.94781464 110.57175727 68.046875 113.38671875 C65.23855344 113.74665856 62.49028303 113.94599815 59.66015625 114.015625 C56.46192744 114.29701507 56.46192744 114.29701507 52.046875 117.38671875 C52.046875 132.56671875 52.046875 147.74671875 52.046875 163.38671875 C-0.753125 163.38671875 -53.553125 163.38671875 -107.953125 163.38671875 C-107.953125 132.38671875 -107.953125 132.38671875 -106.953125 126.38671875 C-106.39220336 121.15535089 -106.39220336 121.15535089 -108.328125 116.44921875 C-111.36410861 114.46415254 -113.41611115 114.25141001 -117.015625 114.07421875 C-126.82952612 113.22863458 -135.39648285 108.69174911 -141.83203125 101.19921875 C-150.61535985 89.36164414 -153.68434786 78.27222957 -151.546875 63.59765625 C-149.85394102 56.5808904 -145.72845653 50.71967923 -140.953125 45.38671875 C-140.293125 45.38671875 -139.633125 45.38671875 -138.953125 45.38671875 C-138.72238281 44.79117188 -138.49164063 44.195625 -138.25390625 43.58203125 C-136.61178519 40.81064376 -134.92297798 39.85521026 -132.140625 38.26171875 C-131.28855469 37.76414062 -130.43648438 37.2665625 -129.55859375 36.75390625 C-123.75465864 33.70836309 -119.43686439 33.07356544 -112.953125 33.13671875 C-112.1590625 33.12898438 -111.365 33.12125 -110.546875 33.11328125 C-106.23438862 33.1276562 -102.88183881 33.39067867 -98.953125 35.38671875 C-98.98792969 36.11117187 -99.02273438 36.835625 -99.05859375 37.58203125 C-99.46835071 45.55051657 -99.46835071 45.55051657 -95.953125 52.38671875 C-92.9470465 53.17554786 -90.05329829 53.37372012 -86.953125 53.38671875 C-83.68724292 48.77042795 -82.64325763 43.89937542 -81.265625 38.51171875 C-77.00983528 22.90086158 -70.24419296 8.10569937 -56.140625 -0.98828125 C-38.25811799 -10.61311683 -17.59568638 -10.69226928 0 0 Z " fill="#F3802A" transform="translate(570.953125,257.61328125)"/>
<path d="M0 0 C0 172.59 0 345.18 0 523 C-7.840963 525.24027514 -7.840963 525.24027514 -11.26953125 525.7109375 C-12.0080835 525.81889648 -12.74663574 525.92685547 -13.50756836 526.03808594 C-14.64850952 526.2048584 -14.64850952 526.2048584 -15.8125 526.375 C-31.20819708 528.82435086 -43.16486557 534.85465605 -53.22265625 547.05859375 C-53.80917969 547.69925781 -54.39570313 548.33992187 -55 549 C-55.66 549 -56.32 549 -57 549 C-57.06978075 539.02008623 -57.12295304 529.04023135 -57.15543652 519.06012249 C-57.17103387 514.42500321 -57.19216265 509.79005192 -57.22631836 505.1550293 C-57.25912481 500.67461834 -57.27689751 496.19436809 -57.28463173 491.71384621 C-57.29013729 490.01197597 -57.30088739 488.31011366 -57.31719017 486.60831261 C-57.43689467 473.58431999 -57.2164631 462.10900479 -48 452 C-47.25363281 451.17371094 -46.50726563 450.34742188 -45.73828125 449.49609375 C-38.43989033 441.80814979 -30.72197141 436.85682711 -20.91015625 432.95703125 C-18.75603962 431.87777036 -17.47793385 430.9053978 -16 429 C-15.5285704 427.05542688 -15.5285704 427.05542688 -15.625 425 C-15.61726563 424.319375 -15.60953125 423.63875 -15.6015625 422.9375 C-16.12209677 420.40627454 -16.96100832 419.55922893 -19 418 C-22.046084 416.76887438 -24.74832072 416.60704782 -28 417 C-35.32466638 420.28421619 -41.43918698 425.85546357 -47.5390625 430.9765625 C-50.25639482 433.21081352 -53.01607241 435.14512609 -56 437 C-56.971384 429.69308951 -57.14339822 422.53741073 -57.13371277 415.17150879 C-57.13597833 413.90018427 -57.13824388 412.62885976 -57.14057809 411.31901026 C-57.14666392 407.81082389 -57.14656632 404.30266146 -57.14538372 400.79447103 C-57.1451789 397.0030069 -57.15070605 393.2115503 -57.15544128 389.42008972 C-57.16372992 382.00073798 -57.16649529 374.58139419 -57.16705366 367.16203821 C-57.16752952 361.13067345 -57.16958774 355.09931131 -57.17275429 349.06794739 C-57.18155474 331.95673903 -57.18617443 314.84553694 -57.18542381 297.7343263 C-57.18538386 296.81282382 -57.1853439 295.89132133 -57.18530273 294.94189453 C-57.18526185 294.01926364 -57.18522097 293.09663276 -57.18517885 292.14604336 C-57.1847722 277.18590933 -57.19434821 262.22580045 -57.2084411 247.2656737 C-57.22280737 231.89378483 -57.2297112 216.52190824 -57.22884732 201.15001249 C-57.22851552 192.5241359 -57.23125562 183.8982857 -57.24202538 175.27241516 C-57.25113349 167.93062791 -57.25330293 160.58887901 -57.24651595 153.24708855 C-57.24325279 149.50319154 -57.24318681 145.75936813 -57.2518692 142.01547813 C-57.26119323 137.95309356 -57.25495318 133.89087913 -57.24723816 129.82849121 C-57.25238172 128.65076094 -57.25752529 127.47303067 -57.26282471 126.25961161 C-57.19191703 109.36520593 -57.19191703 109.36520593 -51.8125 103.875 C-50.86890625 102.89660156 -50.86890625 102.89660156 -49.90625 101.8984375 C-49.2771875 101.27195312 -48.648125 100.64546875 -48 100 C-47.4740625 99.41476562 -46.948125 98.82953125 -46.40625 98.2265625 C-39.42412049 90.66258887 -30.41836 85.32203691 -21.05859375 81.203125 C-18.61542244 79.7752374 -17.45198887 78.41846896 -16 76 C-15.41657647 72.45769191 -15.41657647 72.45769191 -16 69 C-18.7810598 66.29741254 -20.90878095 65.53909079 -24.75 65.46875 C-30.52354474 65.65499338 -33.69272462 67.85968209 -38 71.5 C-38.6813501 72.04301758 -39.3627002 72.58603516 -40.06469727 73.14550781 C-42.06127045 74.74276636 -44.03132916 76.36856703 -46 78 C-47.06946901 78.86204364 -48.14088083 79.72168653 -49.21484375 80.578125 C-50.91137899 81.9314587 -52.60032848 83.29442674 -54.27734375 84.671875 C-56 86 -56 86 -57 86 C-57.67582347 36.33737199 -57.67582347 36.33737199 -39.87109375 17.78125 C-28.46392686 7.16993197 -15.7366814 0 0 0 Z " fill="#F2802A" transform="translate(317,182)"/>
<path d="M0 0 C2.53888592 1.66223356 4.46893969 3.76035093 6.5 6 C7.35452759 6.89912109 7.35452759 6.89912109 8.22631836 7.81640625 C11.62573221 11.41755851 14.94180552 15.09657995 18.15234375 18.8671875 C20.58430471 21.67448282 23.1031169 24.39883591 25.625 27.125 C26.13248779 27.67655762 26.63997559 28.22811523 27.1628418 28.79638672 C29.89122548 31.7540784 32.64745448 34.67792986 35.453125 37.5625 C45.99642781 48.48379 53.51615378 58.89904391 53.3359375 74.66796875 C52.91554343 78.83769131 51.69537365 82.13070634 49.875 85.87890625 C48.74576726 88.23387315 48.74576726 88.23387315 49 92 C50.44773101 93.98370451 50.44773101 93.98370451 52.47265625 95.828125 C53.20806641 96.54613281 53.94347656 97.26414062 54.70117188 98.00390625 C55.48041016 98.74511719 56.25964844 99.48632812 57.0625 100.25 C62.0883052 105.09923449 66.92812728 109.96871166 71.47485352 115.27246094 C73.32174891 117.36444618 75.30405907 119.20341817 77.4375 121 C78.11683594 121.5775 78.79617188 122.155 79.49609375 122.75 C79.99238281 123.1625 80.48867188 123.575 81 124 C89.46940715 117.03626523 97.25755974 109.26014727 104.3671875 100.9140625 C105.54086381 99.53822185 106.7363352 98.18086406 107.9453125 96.8359375 C108.58210937 96.12695312 109.21890625 95.41796875 109.875 94.6875 C110.44992187 94.05199219 111.02484375 93.41648437 111.6171875 92.76171875 C114.48625036 89.10650025 114.16224221 85.46166087 114 81 C113.67 80.34 113.34 79.68 113 79 C111.35613545 61.46166584 114.7440769 48.69363903 126 35 C140.12773482 18.71149717 161.79360415 1.64099707 184 0 C193.50386291 0.20990127 200.98674911 3.51597905 208.03515625 9.8203125 C216.1617469 18.34374303 217.58239423 27.05447851 217.47509766 38.45947266 C217.22722057 45.79307381 215.8630242 52.21567202 213 59 C212.66097656 59.84304688 212.32195312 60.68609375 211.97265625 61.5546875 C203.05497844 81.42111564 185.46912264 96.25601737 165.5234375 104.125 C153.51803706 108.28786331 139.48588091 107.13540384 128 102 C127.60433838 102.42595459 127.20867676 102.85190918 126.80102539 103.29077148 C116.43179309 114.43282889 105.82793138 125.30357376 95 136 C96.53719974 139.26807906 98.01735862 141.1233581 100.8125 143.4375 C104.05706929 146.1423537 107.02315759 149.00172846 110 152 C111.12593372 153.13147129 112.25200063 154.26281004 113.37817383 155.39404297 C113.9926387 156.01173553 114.60710358 156.6294281 115.2401886 157.26583862 C118.02813921 160.06726407 120.81882233 162.86596106 123.60961914 165.66455078 C125.07373997 167.13370184 126.53696221 168.60374897 127.99926758 170.07470703 C130.12860989 172.21628556 132.26126016 174.35452332 134.39453125 176.4921875 C135.35900932 177.4644075 135.35900932 177.4644075 136.3429718 178.45626831 C140.15441863 182.26817654 144.07602161 185.88908855 148.16947937 189.39700317 C155.72773287 196.01580669 155.72773287 196.01580669 156.28515625 200.078125 C156.04120763 203.29110684 155.14787689 205.75353852 153.5 208.5 C149.71442011 210.77134793 146.29906052 210.74228383 142 210 C138.50976539 208.05196208 136.62789652 205.53086686 134.34765625 202.34765625 C130.97166189 197.81648626 127.15074857 193.89040169 123.125 189.9375 C122.45597656 189.26912109 121.78695312 188.60074219 121.09765625 187.91210938 C117.8292338 184.67202585 114.5112499 181.53831199 111.0234375 178.53515625 C105.85638396 174.07258604 101.13628133 169.18430103 96.35546875 164.31640625 C91.74527159 159.6556402 86.99713468 155.24386539 82 151 C76.99461918 152.48242986 74.18401596 155.41021427 70.6328125 159.0390625 C69.73609329 159.93859146 69.73609329 159.93859146 68.82125854 160.85629272 C67.55879088 162.12546962 66.29991964 163.39823279 65.04443359 164.67431641 C63.14529221 166.60437741 61.23591593 168.52378898 59.32421875 170.44140625 C53.93730478 175.86324885 48.62765162 181.29231275 43.66894531 187.11279297 C40.07700691 191.17447873 36.16432105 194.93708623 32.3125 198.75 C31.05083008 200.00490234 31.05083008 200.00490234 29.76367188 201.28515625 C28.20600002 202.83418124 26.64729444 204.38216803 25.0871582 205.92871094 C23.66953313 207.33555749 22.29093523 208.7826143 20.94995117 210.26269531 C19 212 19 212 15.5 212.0625 C11.33929692 210.79942942 10.09826125 209.77687024 8 206 C7.37587217 202.333249 7.71457879 200.54602318 9.4375 197.25 C15.99082791 188.40694008 24.1596651 180.69996225 31.94140625 172.9609375 C32.9600953 171.9441197 33.97855922 170.92707633 34.99681091 169.90982056 C37.64292587 167.2674752 40.29203216 164.62814982 42.9418335 161.98950195 C45.65904558 159.28262536 48.3733342 156.57282056 51.08789062 153.86328125 C56.38911497 148.57269584 61.69351178 143.28530627 67 138 C65.5680465 135.01440849 64.16148902 132.913942 61.8046875 130.57421875 C60.8600061 129.6315918 60.8600061 129.6315918 59.89624023 128.66992188 C59.22923096 128.01572266 58.56222168 127.36152344 57.875 126.6875 C57.19574463 126.01396484 56.51648926 125.34042969 55.81665039 124.64648438 C51.88500752 120.77179455 47.87486027 117.05335603 43.65234375 113.49609375 C40.79923823 110.91278544 38.43091822 107.97787482 36 105 C32.41616048 105.61547155 29.28651895 106.59206622 25.9375 108 C17.86838049 111.38181896 8.94943771 112.86955515 0.5 109.6875 C-8.87640548 104.85569465 -16.21742726 95.91526929 -23.20922852 88.20288086 C-27.43605083 83.55494864 -31.81173415 79.07100341 -36.25 74.625 C-37.22404785 73.64430542 -37.22404785 73.64430542 -38.21777344 72.64379883 C-42.10408639 68.76883493 -46.1056955 65.08570148 -50.2722168 61.51342773 C-52.58215604 59.49006849 -54.43365668 57.65597345 -56 55 C-56.125 52 -56.125 52 -55 49 C-52.17320621 45.97598804 -50.30001993 44.21620275 -46.16967773 43.52929688 C-41.87719981 44.16673795 -39.84226539 46.38180473 -36.97265625 49.40625 C-36.42065048 49.96437378 -35.86864471 50.52249756 -35.2999115 51.09753418 C-33.5395746 52.88475274 -31.80138345 54.69192765 -30.0625 56.5 C-28.89782623 57.68621481 -27.73182237 58.87112524 -26.56445312 60.0546875 C-21.38729269 65.32697216 -16.32028027 70.65767258 -11.51000977 76.26953125 C-8.93951525 79.21531381 -6.19939228 81.98477613 -3.4375 84.75 C-2.63022461 85.57564453 -2.63022461 85.57564453 -1.80664062 86.41796875 C3.95476959 92.20017828 8.70158275 95.73230912 17 96 C19.4237259 95.21214647 19.4237259 95.21214647 21 94 C20.11479091 89.56814746 17.69210682 86.88144065 14.765625 83.5625 C14.1999884 82.91563232 13.63435181 82.26876465 13.05157471 81.60229492 C3.5633013 70.9475046 -6.87473766 61.13698656 -17.12158203 51.22119141 C-19.8913767 48.53583302 -22.64209467 45.8320952 -25.390625 43.125 C-26.24150696 42.31135986 -27.09238892 41.49771973 -27.96905518 40.65942383 C-34.39920468 34.28631369 -34.39920468 34.28631369 -35.16308594 30.109375 C-35 27 -35 27 -33 24.125 C-29.30749752 21.50947741 -27.54433248 20.69190966 -23 21 C-17.17558236 24.45013274 -12.7896084 30.29792697 -8.30249023 35.29125977 C-4.06346731 40.00202233 0.42142387 44.42067478 4.98046875 48.8203125 C7 51 7 51 7 53 C7.66 53 8.32 53 9 53 C10.33984375 54.36328125 10.33984375 54.36328125 11.9375 56.3125 C15.5368989 60.57534743 19.4186798 64.4615561 23.44311523 68.31762695 C24.66490714 69.50909296 25.83715331 70.75093864 27 72 C27 72.66 27 73.32 27 74 C27.598125 74.28875 28.19625 74.5775 28.8125 74.875 C31 76 31 76 34 78 C36.49391943 74.90753991 37.27799151 72.57981547 37.0625 68.6875 C35.55506157 59.4921256 27.66621537 53.48194745 21.2902832 47.2746582 C18.28057877 44.33863689 15.40693761 41.36293388 12.671875 38.16796875 C7.67042876 32.3643048 2.09564293 27.12013611 -3.41210938 21.80273438 C-4.23130859 20.99771484 -5.05050781 20.19269531 -5.89453125 19.36328125 C-6.63550049 18.64438721 -7.37646973 17.92549316 -8.13989258 17.18481445 C-10.94906102 13.88526748 -12.05180396 11.26919694 -11.875 6.9375 C-9.92912519 0.40492027 -6.54117333 -0.82954589 0 0 Z " fill="#2A485D" transform="translate(461,463)"/>
<path d="M0 0 C11.12100939 8.2032126 18.76969126 18.7904206 25 31 C25.59683594 30.855625 26.19367188 30.71125 26.80859375 30.5625 C46.86308544 26.27149435 61.96393153 30.11755449 79 41 C90.45893905 49.03000462 96.93341277 61.30293686 99.8125 74.8125 C99.90622001 76.20658519 99.96250393 77.60327133 100 79 C100.0928125 80.74023438 100.0928125 80.74023438 100.1875 82.515625 C100.77504285 97.74481082 97.56578153 111.71637958 87.109375 123.25390625 C79.75931546 131.05070361 72.01547455 137.82271855 61.8293457 141.58544922 C61.11148392 141.85154999 60.39362213 142.11765076 59.65400696 142.39181519 C59.10818466 142.59251617 58.56236237 142.79321716 58 143 C57.98541748 144.24088379 57.97083496 145.48176758 57.95581055 146.76025391 C57.89769277 151.37870621 57.82046053 155.99667784 57.73754883 160.61474609 C57.70436287 162.61076029 57.67631132 164.60686689 57.65356445 166.60302734 C57.61990207 169.4779384 57.56758023 172.35200743 57.51171875 175.2265625 C57.50532883 176.11429352 57.4989389 177.00202454 57.49235535 177.91665649 C57.3729217 182.98755819 56.8716568 186.63894385 54 191 C50.28212696 193.47858202 48.40248889 193.25365244 43.96000671 193.26069641 C43.23888807 193.26452196 42.51776942 193.26834751 41.77479869 193.27228898 C39.35198948 193.28262968 36.92941678 193.27862482 34.5065918 193.2746582 C32.77206197 193.27900417 31.03753407 193.28418693 29.30300903 193.29014587 C24.58597055 193.30356154 19.86901207 193.30411155 15.15195823 193.30158257 C11.21560672 193.30051431 7.27927149 193.30539266 3.34292346 193.310188 C-5.9444924 193.32129267 -15.23186782 193.3217156 -24.51928711 193.31567383 C-34.10150771 193.30963608 -43.6835814 193.32193781 -53.26577693 193.3432439 C-61.49007648 193.36085856 -69.71432926 193.36686135 -77.93864697 193.36360615 C-82.85168428 193.36179249 -87.76461686 193.36443756 -92.6776371 193.37832069 C-97.29956171 193.39089172 -101.92125748 193.38896179 -106.54317856 193.37590981 C-108.23868448 193.37354266 -109.93420647 193.37628366 -111.62969398 193.38453293 C-113.94641348 193.39499094 -116.26236382 193.38690779 -118.57905579 193.3742218 C-119.87488744 193.37438954 -121.17071909 193.37455729 -122.50581837 193.37473011 C-127.24370606 192.86661995 -130.67305084 191.50940686 -133.84301758 187.90356445 C-135.49028102 183.76959017 -135.47933387 179.9573923 -135.51171875 175.54296875 C-135.52966995 174.64000565 -135.54762115 173.73704254 -135.56611633 172.80671692 C-135.62013021 169.93369156 -135.65408637 167.06083149 -135.6875 164.1875 C-135.72068096 162.23500309 -135.75517134 160.28252796 -135.79101562 158.33007812 C-135.8758516 153.55350484 -135.94270536 148.77697982 -136 144 C-137.44472512 143.35579628 -138.88967357 142.71209337 -140.3347168 142.06860352 C-141.1393486 141.71008804 -141.94398041 141.35157257 -142.772995 140.98219299 C-144.38850126 140.26969395 -146.01377673 139.57921527 -147.64453125 138.90234375 C-161.2989384 132.8255175 -170.75669172 121.15003989 -176.375 107.5625 C-181.20269083 94.82159421 -181.14929853 77.49446244 -176.32421875 64.74609375 C-173.95549081 59.83395291 -171.24898216 55.37877226 -168 51 C-167.41476562 50.20722656 -166.82953125 49.41445313 -166.2265625 48.59765625 C-159.07336925 39.76934813 -148.98922095 33.74730524 -138 31 C-137.35546875 30.79761719 -136.7109375 30.59523438 -136.046875 30.38671875 C-130.85805054 28.93107525 -125.72885218 28.79312059 -120.375 28.75 C-119.65828125 28.74073486 -118.9415625 28.73146973 -118.203125 28.72192383 C-113.45068466 28.74987291 -109.51359593 29.50731473 -105 31 C-104.46632813 30.04480469 -103.93265625 29.08960938 -103.3828125 28.10546875 C-92.11055117 8.36235165 -77.1579046 -4.81250966 -55 -11 C-36.30162954 -15.74089889 -15.86677871 -10.2208292 0 0 Z M-77.27734375 19.765625 C-84.58357265 29.24218493 -88.97435384 39.98426747 -92.27734375 51.390625 C-92.50075439 52.16108154 -92.72416504 52.93153809 -92.9543457 53.7253418 C-93.39496534 55.2608539 -93.82736135 56.79875422 -94.25073242 58.33911133 C-95.78410284 63.78410284 -95.78410284 63.78410284 -98 66 C-101.13781931 66.28579758 -103.98937547 65.91531808 -107 65 C-111.15851669 60.21140503 -110.28844652 54.00396095 -110 48 C-117.75646579 44.17573853 -128.59995299 44.55828247 -136.671875 47.203125 C-141.56087522 49.61114003 -145.90693343 52.38458033 -150 56 C-150 56.66 -150 57.32 -150 58 C-150.66 58 -151.32 58 -152 58 C-160.78589446 67.81184817 -163.76639167 77.07487483 -163.4765625 90.1171875 C-162.10878012 101.2612505 -156.18396207 111.88766252 -147.54296875 119.03125 C-140.29459716 124.33440642 -134.49205151 126.15730804 -125.5859375 126.65625 C-122.94019952 127.00794931 -121.2455022 127.57750992 -119 129 C-116.63456639 133.73086723 -118.1751737 140.05104221 -119 145 C-119 155.23 -119 165.46 -119 176 C-66.2 176 -13.4 176 41 176 C41 160.82 41 145.64 41 130 C46.50984351 126.69409389 46.50984351 126.69409389 51.1875 126.625 C60.2604898 125.97867143 67.0303634 121.88447023 73.18359375 115.30859375 C76.42266017 111.19184482 78.71418936 106.69267667 81 102 C81.928125 100.39125 81.928125 100.39125 82.875 98.75 C86.04664101 88.1778633 84.6049306 76.85699762 79.5234375 67.19140625 C73.97824526 57.86079739 65.86093005 49.55941598 55.1159668 46.45581055 C51.62930544 45.70473212 48.11346851 45.73298636 44.5625 45.6875 C43.81162109 45.65849609 43.06074219 45.62949219 42.28710938 45.59960938 C38.44461715 45.55567587 36.40635633 45.76855127 32.99609375 47.7109375 C30.67114161 50.37712528 30.45715861 51.46199252 30.5 54.9375 C30.28664808 58.73853297 30.10404405 59.84699405 27.875 63.125 C24.23027379 65.50199535 22.26784647 65.79034194 18 65 C14.71307889 60.85455472 13.90988663 56.09803202 12.75 51.0625 C8.62215614 34.413849 1.10030051 19.92487315 -13.8984375 10.8515625 C-34.0443868 -0.08480998 -61.3047942 2.69803068 -77.27734375 19.765625 Z " fill="#2B495C" transform="translate(582,245)"/>
<path d="M0 0 C27.06 0 54.12 0 82 0 C82 23.43 82 46.86 82 71 C77.91049701 69.3641988 74.5900189 67.66907919 70.8515625 65.41015625 C69.66928164 64.70115385 68.48698962 63.99217006 67.3046875 63.28320312 C65.46538669 62.17418411 63.62698232 61.06369862 61.7890625 59.95239258 C59.99958397 58.87212932 58.20695349 57.79724346 56.4140625 56.72265625 C55.3513916 56.08078369 54.2887207 55.43891113 53.19384766 54.77758789 C47.25253888 51.4708558 42.88549621 49.08109122 36 51 C25.68734836 55.19106163 16.4265022 61.63017965 7.12133789 67.65307617 C4.77354351 69.14378645 2.38474866 70.56915081 0 72 C0 48.24 0 24.48 0 0 Z " fill="#F3802A" transform="translate(365,765)"/>
<path d="M0 0 C4.27474588 3.89476847 6.00795282 7.44620118 6.91015625 13.16015625 C7.40702758 28.86561103 -2.22785783 41.96584662 -11.97265625 53.29296875 C-21.22255609 63.11267762 -32.40632135 69.04063214 -45.75 70.375 C-52.20455655 70.28811174 -58.02440473 66.97559527 -62.5 62.5 C-66.35292471 56.07845882 -66.73700303 50.37003029 -66 43 C-61.35330737 24.83565607 -45.6105272 10.98917224 -30.1328125 1.76953125 C-20.74460095 -3.5332865 -9.76478398 -5.97843917 0 0 Z " fill="#F2802A" transform="translate(656,484)"/>
<path d="M0 0 C0.33 0 0.66 0 1 0 C1.33 26.4 1.66 52.8 2 80 C0.515 80.495 0.515 80.495 -1 81 C-1.02315071 70.88187997 -1.04092905 60.76376622 -1.05181217 50.64562511 C-1.05703501 45.94757846 -1.06412183 41.24954991 -1.07543945 36.55151367 C-1.08628956 32.01928339 -1.09228136 27.48707053 -1.09487724 22.95482826 C-1.09672765 21.2240401 -1.10034093 19.49325291 -1.10573006 17.76247215 C-1.11296862 15.34187113 -1.11398974 12.9213425 -1.11352539 10.50073242 C-1.11712067 9.78216064 -1.12071594 9.06358887 -1.12442017 8.32324219 C-1.11805582 5.26562905 -0.97532417 2.92597252 0 0 Z " fill="#DB7C2A" transform="translate(261,650)"/>
<path d="M0 0 C3.06556857 1.36578915 5.14958638 2.91158026 7.49609375 5.30078125 C8.13740234 5.94853516 8.77871094 6.59628906 9.43945312 7.26367188 C10.09880859 7.93978516 10.75816406 8.61589844 11.4375 9.3125 C12.09298828 9.97701172 12.74847656 10.64152344 13.42382812 11.32617188 C14.70238526 12.62268267 15.97874595 13.92136389 17.25268555 15.22241211 C18.77656252 16.77269131 20.31383369 18.30733363 21.859375 19.8359375 C23.79118657 21.78890029 25.42151731 23.75689301 27 26 C23.10440412 24.41576811 20.47885592 21.75252743 17.578125 18.80859375 C17.07327576 18.30328629 16.56842651 17.79797882 16.04827881 17.27735901 C14.98700128 16.21307011 13.92814545 15.14636151 12.87158203 14.07739258 C11.24696675 12.4344325 9.61440222 10.79970383 7.98046875 9.16601562 C6.95004601 8.13068068 5.92008165 7.0948893 4.890625 6.05859375 C4.40007629 5.56693222 3.90952759 5.07527069 3.40411377 4.56871033 C0 1.1160725 0 1.1160725 0 0 Z " fill="#E98323" transform="translate(578,622)"/>
<path d="M0 0 C1.078125 3.7578125 1.078125 3.7578125 0.375 5.9375 C-1.43260703 8.64891055 -3.64052971 10.76471235 -6 13 C-5.51675181 7.84535266 -2.81389239 4.18449681 0 0 Z " fill="#184263" transform="translate(485,263)"/>
<path d="M0 0 C0 3 0 3 -1 5 C0.65 6.98 2.3 8.96 4 11 C3.67 11.66 3.34 12.32 3 13 C0.69 10.69 -1.62 8.38 -4 6 C-2 2 -2 2 0 0 Z " fill="#F08622" transform="translate(559,595)"/>
<path d="M0 0 C0 0.33 0 0.66 0 1 C-5.5415502 2.96263236 -9.20858017 3.01603857 -15 2 C-15 1.67 -15 1.34 -15 1 C-9.94997778 -0.03590199 -5.12583611 -0.10251672 0 0 Z " fill="#0D3D66" transform="translate(311,707)"/>
<path d="M0 0 C2.0625 0.4375 2.0625 0.4375 4 1 C3.01 1.495 3.01 1.495 2 2 C1.34227572 5.02934491 1.34227572 5.02934491 1 8 C0.34 8 -0.32 8 -1 8 C-1.04241723 5.66705225 -1.04092937 3.33297433 -1 1 C-0.67 0.67 -0.34 0.34 0 0 Z " fill="#DB7E29" transform="translate(640,387)"/>
<path d="M0 0 C0.66 0 1.32 0 2 0 C2.33 2.31 2.66 4.62 3 7 C2.01 7.66 1.02 8.32 0 9 C0 6.03 0 3.06 0 0 Z " fill="#F48821" transform="translate(261,610)"/>
<path d="M0 0 C3.36720387 1.39332574 4.9859524 2.9789286 7 6 C4 6 4 6 1.8125 4.125 C0 2 0 2 0 0 Z " fill="#E18029" transform="translate(529,574)"/>
<path d="M0 0 C0.99 0.33 1.98 0.66 3 1 C1.25 3.0625 1.25 3.0625 -1 5 C-3.25 4.75 -3.25 4.75 -5 4 C-2.6875 1.9375 -2.6875 1.9375 0 0 Z " fill="#233C4E" transform="translate(890,889)"/>
<path d="M0 0 C-1.11666174 3.34998521 -1.74694925 3.79340222 -4.5625 5.6875 C-5.20316406 6.12449219 -5.84382812 6.56148438 -6.50390625 7.01171875 C-6.99761719 7.33785156 -7.49132812 7.66398437 -8 8 C-6.48291727 4.46014029 -4.24676932 0 0 0 Z " fill="#F08522" transform="translate(666,372)"/>
</svg>
