<?xml version="1.0" standalone="no"?>
<!DOCTYPE svg PUBLIC "-//W3C//DTD SVG 20010904//EN"
 "http://www.w3.org/TR/2001/REC-SVG-20010904/DTD/svg10.dtd">
<svg version="1.0" xmlns="http://www.w3.org/2000/svg"
 width="1024.000000pt" height="1024.000000pt" viewBox="0 0 1024.000000 1024.000000"
 preserveAspectRatio="xMidYMid meet">

<g transform="translate(0.000000,1024.000000) scale(0.100000,-0.100000)"
fill="#000000" stroke="none">
<path d="M1929 9360 c-83 -10 -224 -45 -308 -76 -399 -150 -676 -514 -733
-964 -8 -71 -12 -778 -15 -2795 -3 -2457 4 -3570 21 -3650 4 -16 13 -59 21
-96 54 -255 256 -551 474 -697 86 -56 237 -128 331 -155 184 -55 -5 -52 3360
-52 1719 0 3163 3 3210 7 198 15 433 106 600 231 247 184 409 462 459 787 7
43 11 1160 11 3240 1 3485 5 3237 -59 3429 -135 403 -456 683 -886 773 l-110
23 -3155 1 c-1735 1 -3185 -2 -3221 -6z m6456 -193 c193 -40 355 -127 496
-267 144 -141 224 -278 277 -470 l27 -95 3 -3135 c3 -3180 2 -3268 -33 -3404
-62 -237 -203 -433 -412 -573 -150 -101 -304 -154 -498 -172 -113 -10 -6277
-10 -6311 1 -12 3 -37 9 -55 12 -105 18 -157 35 -252 82 -105 52 -185 110
-265 191 -165 168 -265 380 -302 638 -14 99 -14 6206 0 6312 15 110 36 200 66
285 118 326 419 559 786 607 35 5 1487 8 3228 7 2917 -2 3171 -3 3245 -19z"/>
<path d="M3129 8586 c-2 -2 -32 -7 -66 -10 -144 -14 -259 -73 -384 -196 -155
-153 -219 -287 -239 -503 -16 -165 -8 -5388 9 -5477 37 -208 212 -388 407
-420 33 -6 191 -10 352 -10 l292 0 0 -136 0 -136 29 -29 c21 -21 39 -29 64
-29 35 0 52 10 154 91 69 55 178 123 250 156 l53 24 51 -26 c73 -36 264 -162
322 -212 27 -23 61 -46 76 -51 36 -12 88 4 103 31 7 13 13 80 16 162 2 77 7
143 11 147 4 4 705 9 1559 10 l1551 3 22 21 c13 14 23 39 26 68 5 44 2 53 -81
191 -85 139 -88 147 -107 252 -21 114 -20 175 2 409 l11 111 59 58 c71 71 107
140 120 232 6 42 8 1014 7 2528 l-3 2460 -23 57 c-33 81 -106 158 -184 194
l-63 29 -2196 3 c-1207 1 -2197 0 -2200 -2z m4380 -194 c45 -22 60 -37 85 -82
l31 -55 3 -2391 c2 -1486 0 -2425 -6 -2479 -12 -108 -42 -157 -117 -195 l-50
-25 -2055 -3 -2055 -2 0 2630 0 2630 2010 2 c1106 2 2030 2 2055 0 25 -2 69
-16 99 -30z m-4339 -2586 l0 -2614 -50 -11 c-28 -6 -68 -11 -89 -11 -57 0
-183 -45 -256 -91 -35 -22 -87 -65 -115 -96 -28 -30 -52 -54 -53 -52 -1 2 0
193 3 424 l5 420 25 48 c40 80 153 179 265 232 83 39 98 50 111 81 8 20 12 43
9 53 -10 32 -52 63 -93 68 -35 5 -48 0 -103 -38 -35 -23 -99 -72 -141 -107
l-78 -64 -1 1594 c-1 876 0 1611 1 1633 1 22 11 55 22 72 38 62 165 169 260
217 105 54 127 77 128 128 0 29 -7 42 -32 63 -28 24 -38 26 -77 21 -46 -6 -83
-31 -224 -148 -38 -32 -73 -58 -76 -58 -13 0 -2 324 14 399 20 96 66 180 136
250 104 104 277 199 367 200 l42 1 0 -2614z m4267 -2874 c-3 -31 -8 -66 -10
-77 -23 -101 -30 -211 -19 -277 19 -112 61 -245 108 -345 l43 -93 -1463 0
-1463 0 -6 270 c-7 295 -11 317 -65 339 -22 9 -151 12 -516 9 l-486 -3 -27
-28 -28 -27 -3 -280 -3 -280 -316 0 c-297 0 -319 1 -358 20 -98 48 -188 178
-201 291 -14 125 55 310 151 402 28 28 85 66 134 90 l84 42 186 5 c102 3 1103
4 2225 2 l2039 -2 -6 -58z m-2967 -697 c0 -195 -2 -355 -4 -355 -2 0 -53 30
-112 67 -147 89 -270 153 -297 153 -33 0 -127 -48 -271 -139 -71 -44 -130 -81
-132 -81 -2 0 -4 160 -4 355 l0 355 410 0 410 0 0 -355z"/>
<path d="M5240 7887 c-191 -58 -347 -183 -429 -342 -30 -57 -38 -65 -55 -60
-12 4 -64 9 -117 12 -118 6 -229 -18 -327 -73 -86 -48 -132 -92 -191 -179
-108 -163 -129 -347 -60 -536 50 -140 186 -272 334 -325 28 -9 56 -22 63 -27
9 -7 12 -62 12 -213 0 -130 4 -212 11 -228 7 -14 28 -33 48 -43 34 -17 92 -18
891 -21 607 -2 866 0 893 8 68 20 77 48 77 240 0 190 8 270 25 270 6 0 38 13
71 30 103 51 230 174 279 269 72 141 72 362 0 517 -57 125 -198 242 -352 293
-77 26 -219 29 -283 6 -23 -8 -46 -15 -50 -15 -5 0 -30 39 -56 86 -66 117
-172 218 -286 272 -135 65 -171 75 -303 79 -103 3 -130 0 -195 -20z m339 -172
c202 -64 314 -207 376 -482 21 -92 32 -107 80 -105 58 2 91 39 97 108 7 81 19
89 136 89 92 0 100 -2 161 -35 126 -68 202 -173 223 -308 14 -90 7 -137 -35
-223 -67 -139 -159 -215 -276 -226 -66 -7 -109 -26 -120 -55 -4 -11 -4 -43 0
-71 4 -29 8 -125 8 -214 l1 -163 -797 0 -798 0 0 158 c0 86 4 187 9 224 8 63
8 67 -17 92 -22 22 -35 26 -84 26 -127 0 -258 103 -321 253 -39 93 -43 173
-12 262 25 74 44 103 108 169 73 75 147 109 247 114 44 2 96 0 115 -5 34 -9
35 -10 36 -64 0 -82 2 -88 29 -114 30 -31 84 -34 110 -5 10 11 33 74 52 142
37 132 55 173 115 260 113 168 345 240 557 173z"/>
<path d="M4524 5586 c-25 -25 -34 -43 -34 -66 0 -35 -20 -13 319 -362 182
-188 200 -221 160 -300 l-22 -43 -179 185 c-99 102 -221 230 -271 285 -50 55
-102 104 -115 108 -31 12 -69 1 -98 -28 -50 -50 -44 -59 209 -315 222 -223
337 -350 337 -370 0 -32 -104 -42 -147 -15 -16 9 -72 63 -126 119 -310 320
-380 386 -410 386 -34 0 -97 -57 -97 -88 0 -28 503 -533 558 -561 75 -38 210
-24 319 33 l31 15 166 -162 167 -162 -278 -284 c-153 -156 -289 -300 -302
-319 -43 -64 -10 -151 59 -152 14 0 30 4 35 8 6 4 132 132 279 285 148 153
284 290 303 304 l33 25 143 -135 c190 -181 373 -362 423 -418 24 -27 52 -48
69 -51 85 -17 144 68 98 140 -9 15 -57 65 -107 112 -50 46 -183 174 -294 283
l-204 198 163 167 c89 92 168 170 174 174 7 4 39 -2 71 -13 188 -67 399 -2
588 179 140 136 213 271 236 441 28 208 -80 375 -265 410 -165 31 -427 -105
-624 -324 -125 -139 -175 -279 -152 -422 16 -96 16 -137 0 -160 -8 -11 -82
-91 -165 -176 l-151 -156 -159 161 c-88 88 -164 165 -170 171 -8 8 -3 28 17
72 34 74 41 133 23 204 -24 91 -64 149 -204 297 -74 78 -173 185 -220 237 -78
87 -114 117 -141 117 -6 0 -26 -15 -45 -34z m1985 -166 c49 -14 89 -57 105
-111 25 -81 -8 -202 -88 -324 -57 -88 -171 -195 -247 -232 -124 -61 -196 -65
-286 -13 -66 38 -88 81 -88 175 0 59 5 81 32 135 64 129 187 253 324 325 98
51 177 66 248 45z"/>
</g>
</svg>
